<mxfile host="app.diagrams.net" modified="2021-11-19T14:44:45.444Z" agent="5.0 (Windows NT 10.0; Win64; x64) AppleWebKit/537.36 (KHTML, like Gecko) Chrome/79.0.3945.88 Safari/537.36" etag="VrvDmZjuSr3YBDndPzkZ" version="14.8.3" type="github">
  <diagram id="z26Lgri5MpZR7kQR8wSl" name="Page-1">
    <mxGraphModel dx="1422" dy="762" grid="1" gridSize="10" guides="1" tooltips="1" connect="1" arrows="1" fold="1" page="1" pageScale="1" pageWidth="827" pageHeight="1169" math="0" shadow="0">
      <root>
        <mxCell id="0" />
        <mxCell id="1" parent="0" />
        <mxCell id="H0YycB7nk8A6kJBL1n6P-2" value="" style="image;html=1;image=img/lib/clip_art/computers/iPad_128x128.png" vertex="1" parent="1">
          <mxGeometry x="610" y="475" width="80" height="80" as="geometry" />
        </mxCell>
        <mxCell id="H0YycB7nk8A6kJBL1n6P-3" value="" style="image;html=1;image=img/lib/clip_art/computers/Workstation_128x128.png" vertex="1" parent="1">
          <mxGeometry x="140" y="515" width="80" height="80" as="geometry" />
        </mxCell>
        <mxCell id="H0YycB7nk8A6kJBL1n6P-4" value="" style="image;html=1;image=img/lib/clip_art/general/Full_Folder_128x128.png" vertex="1" parent="1">
          <mxGeometry x="160" y="395" width="80" height="80" as="geometry" />
        </mxCell>
        <mxCell id="H0YycB7nk8A6kJBL1n6P-5" value="" style="image;html=1;image=img/lib/clip_art/general/Full_Folder_128x128.png" vertex="1" parent="1">
          <mxGeometry x="500" y="382" width="80" height="80" as="geometry" />
        </mxCell>
        <mxCell id="H0YycB7nk8A6kJBL1n6P-6" value="Chef du laboratoire" style="image;html=1;image=img/lib/clip_art/people/Suit_Woman_Black_128x128.png" vertex="1" parent="1">
          <mxGeometry x="670" y="507" width="80" height="80" as="geometry" />
        </mxCell>
        <mxCell id="H0YycB7nk8A6kJBL1n6P-7" value="Technicienne d&#39;analyse biomÃ©dicale&lt;br&gt;" style="image;html=1;image=img/lib/clip_art/people/Worker_Woman_Black_128x128.png" vertex="1" parent="1">
          <mxGeometry x="210" y="530" width="80" height="80" as="geometry" />
        </mxCell>
        <mxCell id="H0YycB7nk8A6kJBL1n6P-8" value="" style="aspect=fixed;html=1;points=[];align=center;image;fontSize=12;image=img/lib/mscae/Azure_Database_for_PostgreSQL_servers.svg;" vertex="1" parent="1">
          <mxGeometry x="320" y="303" width="38" height="50" as="geometry" />
        </mxCell>
        <mxCell id="H0YycB7nk8A6kJBL1n6P-9" value="" style="aspect=fixed;html=1;points=[];align=center;image;fontSize=12;image=img/lib/mscae/CustomDomain.svg;" vertex="1" parent="1">
          <mxGeometry x="640" y="425" width="50" height="42" as="geometry" />
        </mxCell>
        <mxCell id="H0YycB7nk8A6kJBL1n6P-10" value="" style="aspect=fixed;html=1;points=[];align=center;image;fontSize=12;image=img/lib/mscae/Certificate.svg;" vertex="1" parent="1">
          <mxGeometry x="680" y="403" width="50" height="42" as="geometry" />
        </mxCell>
        <mxCell id="H0YycB7nk8A6kJBL1n6P-11" value="" style="shape=flexArrow;endArrow=classic;html=1;entryX=0;entryY=0.5;entryDx=0;entryDy=0;exitX=0.75;exitY=0;exitDx=0;exitDy=0;" edge="1" parent="1" source="H0YycB7nk8A6kJBL1n6P-3">
          <mxGeometry width="50" height="50" relative="1" as="geometry">
            <mxPoint x="220" y="505" as="sourcePoint" />
            <mxPoint x="300" y="405" as="targetPoint" />
          </mxGeometry>
        </mxCell>
        <mxCell id="H0YycB7nk8A6kJBL1n6P-12" value="" style="image;html=1;image=img/lib/clip_art/networking/Cloud_Rack_Private_128x128.png" vertex="1" parent="1">
          <mxGeometry x="320" y="325" width="120" height="130" as="geometry" />
        </mxCell>
        <mxCell id="H0YycB7nk8A6kJBL1n6P-13" value="" style="pointerEvents=1;shadow=0;dashed=0;html=1;strokeColor=none;fillColor=#505050;labelPosition=center;verticalLabelPosition=bottom;verticalAlign=top;outlineConnect=0;align=center;shape=mxgraph.office.concepts.writing_pen;" vertex="1" parent="1">
          <mxGeometry x="660" y="481" width="54" height="54" as="geometry" />
        </mxCell>
        <mxCell id="H0YycB7nk8A6kJBL1n6P-14" value="" style="pointerEvents=1;shadow=0;dashed=0;html=1;strokeColor=none;fillColor=#505050;labelPosition=center;verticalLabelPosition=bottom;verticalAlign=top;outlineConnect=0;align=center;shape=mxgraph.office.security.lock_with_key_security_orange;" vertex="1" parent="1">
          <mxGeometry x="150" y="403" width="47" height="58" as="geometry" />
        </mxCell>
        <mxCell id="H0YycB7nk8A6kJBL1n6P-15" value="" style="pointerEvents=1;shadow=0;dashed=0;html=1;strokeColor=none;fillColor=#505050;labelPosition=center;verticalLabelPosition=bottom;verticalAlign=top;outlineConnect=0;align=center;shape=mxgraph.office.security.lock_with_key_security_orange;" vertex="1" parent="1">
          <mxGeometry x="560" y="372" width="47" height="58" as="geometry" />
        </mxCell>
        <mxCell id="H0YycB7nk8A6kJBL1n6P-16" value="" style="shape=flexArrow;endArrow=classic;startArrow=classic;html=1;entryX=1;entryY=0.75;entryDx=0;entryDy=0;exitX=0;exitY=0.25;exitDx=0;exitDy=0;" edge="1" parent="1" source="H0YycB7nk8A6kJBL1n6P-2" target="H0YycB7nk8A6kJBL1n6P-12">
          <mxGeometry width="100" height="100" relative="1" as="geometry">
            <mxPoint x="340" y="705" as="sourcePoint" />
            <mxPoint x="440" y="605" as="targetPoint" />
          </mxGeometry>
        </mxCell>
        <mxCell id="H0YycB7nk8A6kJBL1n6P-17" value="SYSBIO-REMOTE-VALIDATOR" style="text;html=1;strokeColor=none;fillColor=none;align=center;verticalAlign=middle;whiteSpace=wrap;rounded=0;fontStyle=1;fontSize=21;" vertex="1" parent="1">
          <mxGeometry x="80" y="163" width="680" height="40" as="geometry" />
        </mxCell>
      </root>
    </mxGraphModel>
  </diagram>
</mxfile>
